<svg width="44" height="45" viewBox="0 0 44 45" fill="none" xmlns="http://www.w3.org/2000/svg">
<path d="M25.875 15.7999V28.9249C25.875 31.6874 23.6375 33.9249 20.875 33.9249C18.1125 33.9249 15.875 31.6874 15.875 28.9249V15.7999C15.875 14.0749 17.275 12.6749 19 12.6749C20.725 12.6749 22.125 14.0749 22.125 15.7999V27.6749C22.125 28.3624 21.5625 28.9249 20.875 28.9249C20.1875 28.9249 19.625 28.3624 19.625 27.6749V15.7999H17.75V27.6749C17.75 29.3999 19.15 30.7999 20.875 30.7999C22.6 30.7999 24 29.3999 24 27.6749V15.7999C24 13.0374 21.7625 10.7999 19 10.7999C16.2375 10.7999 14 13.0374 14 15.7999V28.9249C14 32.7249 17.075 35.7999 20.875 35.7999C24.675 35.7999 27.75 32.7249 27.75 28.9249V15.7999H25.875Z" fill="#303034"/>
</svg>
