<svg width="44" height="44" viewBox="0 0 44 44" fill="none" xmlns="http://www.w3.org/2000/svg">
<path d="M28.0428 25.484C29.7553 26.6465 30.9553 28.2215 30.9553 30.3215V34.0715H35.9553V30.3215C35.9553 27.5965 31.4928 25.984 28.0428 25.484Z" fill="#303034"/>
<path d="M25.9553 24.0715C28.7178 24.0715 30.9553 21.834 30.9553 19.0715C30.9553 16.309 28.7178 14.0715 25.9553 14.0715C25.3678 14.0715 24.8178 14.1965 24.2928 14.3715C25.3303 15.659 25.9553 17.2965 25.9553 19.0715C25.9553 20.8465 25.3303 22.484 24.2928 23.7715C24.8178 23.9465 25.3678 24.0715 25.9553 24.0715Z" fill="#303034"/>
<path d="M18.4553 24.0715C21.2178 24.0715 23.4553 21.834 23.4553 19.0715C23.4553 16.309 21.2178 14.0715 18.4553 14.0715C15.6928 14.0715 13.4553 16.309 13.4553 19.0715C13.4553 21.834 15.6928 24.0715 18.4553 24.0715ZM18.4553 16.5715C19.8303 16.5715 20.9553 17.6965 20.9553 19.0715C20.9553 20.4465 19.8303 21.5715 18.4553 21.5715C17.0803 21.5715 15.9553 20.4465 15.9553 19.0715C15.9553 17.6965 17.0803 16.5715 18.4553 16.5715Z" fill="#303034"/>
<path d="M18.4553 25.3215C15.1178 25.3215 8.45532 26.9965 8.45532 30.3215V34.0715H28.4553V30.3215C28.4553 26.9965 21.7928 25.3215 18.4553 25.3215ZM25.9553 31.5715H10.9553V30.334C11.2053 29.434 15.0803 27.8215 18.4553 27.8215C21.8303 27.8215 25.7053 29.434 25.9553 30.3215V31.5715Z" fill="#303034"/>
</svg>
