<svg width="50" height="46" viewBox="0 0 50 46" fill="none" xmlns="http://www.w3.org/2000/svg">
<g clip-path="url(#clip0_54524_57891)">
<path d="M25 10C17.272 10 11 16.272 11 24C11 31.728 17.272 38 25 38C32.728 38 39 31.728 39 24C39 16.272 32.728 10 25 10ZM19.4 31.7C17.468 31.7 15.9 30.132 15.9 28.2C15.9 26.268 17.468 24.7 19.4 24.7C21.332 24.7 22.9 26.268 22.9 28.2C22.9 30.132 21.332 31.7 19.4 31.7ZM21.5 18.4C21.5 16.468 23.068 14.9 25 14.9C26.932 14.9 28.5 16.468 28.5 18.4C28.5 20.332 26.932 21.9 25 21.9C23.068 21.9 21.5 20.332 21.5 18.4ZM30.6 31.7C28.668 31.7 27.1 30.132 27.1 28.2C27.1 26.268 28.668 24.7 30.6 24.7C32.532 24.7 34.1 26.268 34.1 28.2C34.1 30.132 32.532 31.7 30.6 31.7Z" fill="#303034"/>
</g>
<defs>
<clipPath id="clip0_54524_57891">
<rect x="2.5" y="0.900024" width="45" height="45" rx="22.5" fill="white"/>
</clipPath>
</defs>
</svg>
