<svg width="31" height="31" viewBox="0 0 31 31" fill="none" xmlns="http://www.w3.org/2000/svg">
<path d="M23 10.7751H21.75V8.27515C21.75 4.82515 18.95 2.02515 15.5 2.02515C12.05 2.02515 9.25 4.82515 9.25 8.27515V10.7751H8C6.625 10.7751 5.5 11.9001 5.5 13.2751V25.7751C5.5 27.1501 6.625 28.2751 8 28.2751H23C24.375 28.2751 25.5 27.1501 25.5 25.7751V13.2751C25.5 11.9001 24.375 10.7751 23 10.7751ZM11.75 8.27515C11.75 6.20015 13.425 4.52515 15.5 4.52515C17.575 4.52515 19.25 6.20015 19.25 8.27515V10.7751H11.75V8.27515ZM23 25.7751H8V13.2751H23V25.7751ZM15.5 22.0251C16.875 22.0251 18 20.9001 18 19.5251C18 18.1501 16.875 17.0251 15.5 17.0251C14.125 17.0251 13 18.1501 13 19.5251C13 20.9001 14.125 22.0251 15.5 22.0251Z" fill="#6750A4"/>
</svg>
