<svg width="24" height="24" viewBox="0 0 24 24" fill="none" xmlns="http://www.w3.org/2000/svg">
<path d="M12 21.7502C13.1 21.7502 14 20.8502 14 19.7502H10C10 20.8502 10.9 21.7502 12 21.7502ZM18 15.7502V10.7502C18 7.68021 16.37 5.11021 13.5 4.43021V3.75021C13.5 2.92021 12.83 2.25021 12 2.25021C11.17 2.25021 10.5 2.92021 10.5 3.75021V4.43021C7.64 5.11021 6 7.67021 6 10.7502V15.7502L4 17.7502V18.7502H20V17.7502L18 15.7502ZM16 16.7502H8V10.7502C8 8.27021 9.51 6.25021 12 6.25021C14.49 6.25021 16 8.27021 16 10.7502V16.7502Z" fill="#303034"/>
</svg>
