<svg width="83" height="82" viewBox="0 0 83 82" fill="none" xmlns="http://www.w3.org/2000/svg">
<path fill-rule="evenodd" clip-rule="evenodd" d="M41.5003 0.166626C18.9603 0.166626 0.666992 18.46 0.666992 41C0.666992 63.54 18.9603 81.8333 41.5003 81.8333C64.0403 81.8333 82.3337 63.54 82.3337 41C82.3337 18.46 64.0403 0.166626 41.5003 0.166626ZM67.4703 60.7225C61.6312 53.6175 47.462 51.2083 41.5003 51.2083C35.5387 51.2083 21.3695 53.6175 15.5303 60.7225C11.3653 55.2508 8.83366 48.4316 8.83366 41C8.83366 22.9925 23.4928 8.33329 41.5003 8.33329C59.5078 8.33329 74.167 22.9925 74.167 41C74.167 48.4316 71.6353 55.2508 67.4703 60.7225ZM27.2087 30.7916C27.2087 22.87 33.5787 16.5 41.5003 16.5C49.422 16.5 55.792 22.87 55.792 30.7916C55.792 38.7133 49.422 45.0833 41.5003 45.0833C33.5787 45.0833 27.2087 38.7133 27.2087 30.7916Z" fill="#575E71"/>
</svg>
