<svg width="50" height="46" viewBox="0 0 50 46" fill="none" xmlns="http://www.w3.org/2000/svg">
<g clip-path="url(#clip0_54524_57892)">
<path d="M20.8947 29.6667H18.1579V20.3333H20.8947V29.6667ZM26.3684 29.6667H23.6316V16.3333H26.3684V29.6667ZM31.8421 29.6667H29.1053V24.3333H31.8421V29.6667ZM35.2632 32.4667H14.7368V13.6667H35.2632V32.4667ZM35.2632 11H14.7368C13.2316 11 12 12.2 12 13.6667V32.3333C12 33.8 13.2316 35 14.7368 35H35.2632C36.7684 35 38 33.8 38 32.3333V13.6667C38 12.2 36.7684 11 35.2632 11Z" fill="#303034"/>
</g>
<defs>
<clipPath id="clip0_54524_57892">
<rect x="2.5" y="0.900024" width="45" height="45" rx="22.5" fill="white"/>
</clipPath>
</defs>
</svg>
