<svg width="64" height="64" viewBox="0 0 83 82" fill="none" xmlns="http://www.w3.org/2000/svg">
<path fill-rule="evenodd" clip-rule="evenodd" d="M41.5 0.166748C18.96 0.166748 0.666687 18.4601 0.666687 41.0001C0.666687 63.5401 18.96 81.8334 41.5 81.8334C64.04 81.8334 82.3334 63.5401 82.3334 41.0001C82.3334 18.4601 64.04 0.166748 41.5 0.166748ZM67.47 60.7226C61.6309 53.6176 47.4617 51.2084 41.5 51.2084C35.5384 51.2084 21.3692 53.6176 15.53 60.7226C11.365 55.2509 8.83335 48.4318 8.83335 41.0001C8.83335 22.9926 23.4925 8.33342 41.5 8.33342C59.5075 8.33342 74.1667 22.9926 74.1667 41.0001C74.1667 48.4318 71.635 55.2509 67.47 60.7226ZM27.2084 30.7918C27.2084 22.8701 33.5784 16.5001 41.5 16.5001C49.4217 16.5001 55.7917 22.8701 55.7917 30.7918C55.7917 38.7134 49.4217 45.0834 41.5 45.0834C33.5784 45.0834 27.2084 38.7134 27.2084 30.7918Z" fill="#575E71"/>
</svg>
