<svg width="63" height="62" viewBox="0 0 63 62" fill="none" xmlns="http://www.w3.org/2000/svg">
<path fill-rule="evenodd" clip-rule="evenodd" d="M31.5 0.166664C14.48 0.166664 0.666672 13.98 0.666672 31C0.666672 48.02 14.48 61.8333 31.5 61.8333C48.52 61.8333 62.3334 48.02 62.3334 31C62.3334 13.98 48.52 0.166664 31.5 0.166664ZM51.11 45.8925C46.7008 40.5275 36.0017 38.7083 31.5 38.7083C26.9983 38.7083 16.2992 40.5275 11.89 45.8925C8.74501 41.7608 6.83334 36.6117 6.83334 31C6.83334 17.4025 17.9025 6.33333 31.5 6.33333C45.0975 6.33333 56.1667 17.4025 56.1667 31C56.1667 36.6117 54.255 41.7608 51.11 45.8925ZM20.7083 23.2917C20.7083 17.31 25.5183 12.5 31.5 12.5C37.4817 12.5 42.2917 17.31 42.2917 23.2917C42.2917 29.2733 37.4817 34.0833 31.5 34.0833C25.5183 34.0833 20.7083 29.2733 20.7083 23.2917Z" fill="currentColor"/>
</svg>
