<svg width="50" height="46" viewBox="0 0 50 46" fill="none" xmlns="http://www.w3.org/2000/svg">
<g clip-path="url(#clip0_54524_57890)">
<path d="M14.6 16.2H12V34.4C12 35.83 13.17 37 14.6 37H32.8V34.4H14.6V16.2ZM35.4 11H19.8C18.37 11 17.2 12.17 17.2 13.6V29.2C17.2 30.63 18.37 31.8 19.8 31.8H35.4C36.83 31.8 38 30.63 38 29.2V13.6C38 12.17 36.83 11 35.4 11ZM34.1 22.7H21.1V20.1H34.1V22.7ZM28.9 27.9H21.1V25.3H28.9V27.9ZM34.1 17.5H21.1V14.9H34.1V17.5Z" fill="#303034"/>
</g>
<defs>
<clipPath id="clip0_54524_57890">
<rect x="2.5" y="0.900024" width="45" height="45" rx="22.5" fill="white"/>
</clipPath>
</defs>
</svg>
