<svg width="26" height="26" viewBox="0 0 26 26" fill="none" xmlns="http://www.w3.org/2000/svg">
<path d="M18.4167 7.58325H14.0833V9.74992H18.4167C20.2042 9.74992 21.6667 11.2124 21.6667 12.9999C21.6667 14.7874 20.2042 16.2499 18.4167 16.2499H14.0833V18.4166H18.4167C21.4067 18.4166 23.8333 15.9899 23.8333 12.9999C23.8333 10.0099 21.4067 7.58325 18.4167 7.58325ZM11.9167 16.2499H7.58332C5.79582 16.2499 4.33332 14.7874 4.33332 12.9999C4.33332 11.2124 5.79582 9.74992 7.58332 9.74992H11.9167V7.58325H7.58332C4.59332 7.58325 2.16666 10.0099 2.16666 12.9999C2.16666 15.9899 4.59332 18.4166 7.58332 18.4166H11.9167V16.2499ZM8.66666 11.9166H17.3333V14.0833H8.66666V11.9166Z" fill="#575E71"/>
</svg>
