<svg width="40" height="40" viewBox="0 0 40 40" fill="none" xmlns="http://www.w3.org/2000/svg">
<path fill-rule="evenodd" clip-rule="evenodd" d="M20 3.33356C10.8 3.33356 3.33334 10.8002 3.33334 20.0002C3.33334 29.2002 10.8 36.6669 20 36.6669C29.2 36.6669 36.6667 29.2002 36.6667 20.0002C36.6667 10.8002 29.2 3.33356 20 3.33356ZM30.6 28.0502C28.2167 25.1502 22.4333 24.1669 20 24.1669C17.5667 24.1669 11.7833 25.1502 9.40001 28.0502C7.70001 25.8169 6.66668 23.0336 6.66668 20.0002C6.66668 12.6502 12.65 6.66689 20 6.66689C27.35 6.66689 33.3333 12.6502 33.3333 20.0002C33.3333 23.0336 32.3 25.8169 30.6 28.0502ZM14.1667 15.8336C14.1667 12.6002 16.7667 10.0002 20 10.0002C23.2333 10.0002 25.8333 12.6002 25.8333 15.8336C25.8333 19.0669 23.2333 21.6669 20 21.6669C16.7667 21.6669 14.1667 19.0669 14.1667 15.8336Z" fill="#303034"/>
</svg>
