
<svg width="50" height="46" viewBox="0 0 50 46" fill="none" xmlns="http://www.w3.org/2000/svg">
<g clip-path="url(#clip0_54524_57795)">
<path fill-rule="evenodd" clip-rule="evenodd" d="M29.8271 36.5688C29.6812 37.5604 28.7771 38.3479 27.6979 38.3479H22.3021C21.2229 38.3479 20.3187 37.5604 20.1875 36.4958L19.7937 33.7396C19.4 33.5354 19.0208 33.3167 18.6417 33.0688L16.0167 34.1188C14.9958 34.4979 13.8729 34.075 13.3771 33.1708L10.7083 28.5479C10.1979 27.5854 10.4167 26.4479 11.2333 25.8063L13.4646 24.0708C13.45 23.8521 13.4354 23.6333 13.4354 23.4C13.4354 23.1813 13.45 22.9479 13.4646 22.7292L11.2479 20.9938C10.3875 20.3375 10.1687 19.1563 10.7083 18.2521L13.4062 13.6C13.9021 12.6958 15.025 12.2875 16.0167 12.6813L18.6562 13.7458C19.0354 13.4979 19.4146 13.2792 19.7937 13.075L20.1875 10.2896C20.3187 9.26876 21.2229 8.46667 22.2875 8.46667H27.6833C28.7625 8.46667 29.6667 9.25417 29.7979 10.3188L30.1917 13.075C30.5854 13.2792 30.9646 13.4979 31.3437 13.7458L33.9687 12.6958C35.0042 12.3167 36.1271 12.7396 36.6229 13.6438L39.3062 18.2813C39.8312 19.2438 39.5979 20.3813 38.7812 21.0229L36.5646 22.7583C36.5792 22.9771 36.5937 23.1958 36.5937 23.4292C36.5937 23.6625 36.5792 23.8813 36.5646 24.1L38.7812 25.8354C39.5979 26.4917 39.8312 27.6292 39.3208 28.5479L36.6083 33.2438C36.1125 34.1479 34.9896 34.5563 33.9833 34.1625L31.3583 33.1125C30.9792 33.3604 30.6 33.5792 30.2208 33.7833L29.8271 36.5688ZM22.9875 35.4313H27.0125L27.5521 31.7125L28.325 31.3917C28.9667 31.1292 29.6083 30.75 30.2792 30.2542L30.9354 29.7583L34.4062 31.1583L36.4187 27.6583L33.4583 25.3542L33.5604 24.5375L33.5649 24.4983C33.6071 24.1331 33.6479 23.7801 33.6479 23.4C33.6479 23.0063 33.6042 22.6271 33.5604 22.2625L33.4583 21.4458L36.4187 19.1417L34.3917 15.6417L30.9062 17.0417L30.25 16.5313C29.6375 16.0646 28.9812 15.6854 28.3104 15.4083L27.5521 15.0875L27.0125 11.3688H22.9875L22.4479 15.0875L21.675 15.3938C21.0333 15.6708 20.3917 16.0354 19.7208 16.5458L19.0646 17.0271L15.5937 15.6417L13.5667 19.1271L16.5271 21.4313L16.425 22.2479C16.3812 22.6271 16.3375 23.0208 16.3375 23.4C16.3375 23.7792 16.3667 24.1729 16.425 24.5375L16.5271 25.3542L13.5667 27.6583L15.5792 31.1583L19.0646 29.7583L19.7208 30.2688C20.3479 30.75 20.975 31.1146 21.6604 31.3917L22.4333 31.7125L22.9875 35.4313ZM30.1042 23.4C30.1042 26.219 27.8189 28.5042 25 28.5042C22.181 28.5042 19.8958 26.219 19.8958 23.4C19.8958 20.5811 22.181 18.2958 25 18.2958C27.8189 18.2958 30.1042 20.5811 30.1042 23.4Z" fill="#303034"/>
</g>
<defs>
<clipPath id="clip0_54524_57795">
<rect x="2.5" y="0.900024" width="45" height="45" rx="22.5" fill="white"/>
</clipPath>
</defs>
</svg>
