<svg width="25" height="24" viewBox="0 0 25 24" fill="none" xmlns="http://www.w3.org/2000/svg">
<path fill-rule="evenodd" clip-rule="evenodd" d="M15.2623 16.81C15.7923 16.31 16.5023 16 17.2923 16C18.9523 16 20.2923 17.34 20.2923 19C20.2923 20.66 18.9523 22 17.2923 22C15.6323 22 14.2923 20.66 14.2923 19C14.2923 18.76 14.3323 18.53 14.3823 18.31L7.3323 14.19C6.7923 14.69 6.0823 15 5.2923 15C3.6323 15 2.2923 13.66 2.2923 12C2.2923 10.34 3.6323 9 5.2923 9C6.0823 9 6.7923 9.31 7.3323 9.81L14.3823 5.7C14.3323 5.48 14.2923 5.24 14.2923 5C14.2923 3.34 15.6323 2 17.2923 2C18.9523 2 20.2923 3.34 20.2923 5C20.2923 6.66 18.9523 8 17.2923 8C16.5023 8 15.7823 7.69 15.2523 7.19L8.2023 11.3C8.2523 11.53 8.2923 11.76 8.2923 12C8.2923 12.24 8.2523 12.47 8.2023 12.7L15.2623 16.81ZM18.2923 5C18.2923 4.45 17.8423 4 17.2923 4C16.7423 4 16.2923 4.45 16.2923 5C16.2923 5.55 16.7423 6 17.2923 6C17.8423 6 18.2923 5.55 18.2923 5ZM5.2923 13C4.7423 13 4.2923 12.55 4.2923 12C4.2923 11.45 4.7423 11 5.2923 11C5.8423 11 6.2923 11.45 6.2923 12C6.2923 12.55 5.8423 13 5.2923 13ZM16.2923 19C16.2923 19.55 16.7423 20 17.2923 20C17.8423 20 18.2923 19.55 18.2923 19C18.2923 18.45 17.8423 18 17.2923 18C16.7423 18 16.2923 18.45 16.2923 19Z" fill="#575E71"/>
</svg>
